# AST/ASF file generated using VICON BodyLanguage
# -----------------------------------------------
:version 1.10
:name VICON
:units
  mass 1.0
  length 0.45
  angle deg
:documentation
   .ast/.asf automatically generated from VICON data using
   VICON BodyBuilder and BodyLanguage model FoxedUp or BRILLIANT.MOD
:root
   order TX TY TZ RX RY RZ
   axis XYZ
   position 0 0 0  
   orientation 0 0 0 
:bonedata
  begin
     id 1 
     name lhipjoint
     direction 0.611804 -0.747784 0.257906 
     length 2.29243 
     axis 0 0 0  XYZ
  end
  begin
     id 2 
     name lfemur
     direction 0.34202 -0.939693 0  
     length 7.31159  
     axis 0 0 20  XYZ
    dof rx ry rz
    limits (-160.0 20.0)
           (-70.0 70.0)
           (-60.0 70.0)
  end
  begin
     id 3 
     name ltibia
     direction 0.34202 -0.939693 0   
     length 7.33391   
     axis 0 0 20   XYZ
    dof rx
    limits (-10.0 170.0)
  end
  begin
     id 4 
     name lfoot
     direction 0.122263 -0.335914 0.933924   
     length 1.76083   
     axis -90 7.62852e-016 20   XYZ
    dof rx rz
    limits (-45.0 90.0)
           (-70.0 20.0)
  end
  begin
     id 5 
     name ltoes
     direction 1.53533e-011 -4.2177e-011 1   
     length 0.879206   
     axis -90 7.62852e-016 20   XYZ
    dof rx
    limits (-90.0 20.0)
  end
  begin
     id 6 
     name rhipjoint
     direction -0.646469 -0.721248 0.248754   
     length 2.37677  
     axis 0 0 0  XYZ 
  end
  begin
     id 7 
     name rfemur
     direction -0.34202 -0.939693 0   
     length 7.18623   
     axis 0 0 -20   XYZ
    dof rx ry rz
    limits (-160.0 20.0)
           (-70.0 70.0)
           (-70.0 60.0)
  end
  begin
     id 8 
     name rtibia
     direction -0.34202 -0.939693 0   
     length 7.36567   
     axis 0 0 -20   XYZ
    dof rx
    limits (-10.0 170.0)
 end
 begin
     id 9 
     name rfoot
     direction -0.126681 -0.348054 0.928876   
     length 1.71902  
     axis -90 -7.62852e-016 -20   XYZ
    dof rx rz
    limits (-45.0 90.0)
           (-20.0 70.0)
  end
  begin
     id 10 
     name rtoes
     direction -1.53551e-011 -4.21898e-011 1   
     length 0.857792   
     axis -90 -7.62852e-016 -20   XYZ
    dof rx
    limits (-90.0 20.0)
  end
  begin
     id 11 
     name lowerback
     direction 0.0106509 0.999778 0.0181844   
     length 2.07668   
     axis 0 0 0   XYZ
    dof rx ry rz
    limits (-20.0 45.0)
           (-30.0 30.0)
           (-30.0 30.0)
  end
  begin
     id 12 
     name upperback
     direction -0.00456018 0.999989 -0.000590935   
     length 2.08011   
     axis 0 0 0   XYZ
    dof rx ry rz
    limits (-20.0 45.0)
           (-30.0 30.0)
           (-30.0 30.0)
  end
  begin
     id 13 
     name thorax
     direction -0.00910382 0.999916 -0.00923765   
     length 2.07397   
     axis 0 0 0   XYZ
    dof rx ry rz
    limits (-20.0 45.0)
           (-30.0 30.0)
           (-30.0 30.0)
  end
  begin
     id 14 
     name lowerneck
     direction 0.00171967 0.99778 0.0665733   
     length 1.67556   
     axis 0 0 0   XYZ
    dof rx ry rz
    limits (-20.0 45.0)
           (-30.0 30.0)
           (-30.0 30.0)
  end
  begin
     id 15 
     name upperneck
     direction -0.0143166 0.991302 -0.130828   
     length 1.68462   
     axis 0 0 0   XYZ
    dof rx ry rz
    limits (-20.0 45.0)
           (-30.0 30.0)
           (-30.0 30.0)
  end
  begin
     id 16
     name head
     direction -0.00606378 0.998665 -0.0512995  
     length 1.69269  
     axis 0 0 0   XYZ
    dof rx ry rz
    limits (-20.0 45.0)
           (-30.0 30.0)
           (-30.0 30.0)
  end
  begin
     id 17 
     name lclavicle
     direction 0.9638 0.179341 0.197297  
     length 4.12888  
     axis 0 0 0   XYZ
    dof ry rz
    limits (-20.0 10.0)
           (0.0 20.0)
  end
  begin
     id 18 
     name lhumerus
     direction 1 -4.48972e-011 -2.47351e-027   
     length 5.01834   
     axis -180 -30 -90   XYZ
    dof rx ry rz
    limits (-60.0 90.0)
           (-90.0 90.0)
           (-90.0 90.0)
  end
  begin
     id 19
     name lradius
     direction 1 -4.48965e-011 1.51591e-026   
     length 3.4869   
     axis -180 -30 -90   XYZ
    dof rx
    limits (-10.0 170.0)
  end
  begin
     id 20
     name lwrist
     direction 1 -4.48957e-011 2.70032e-026   
     length 1.74345   
     axis -1.81515e-014 90 90   XYZ
    dof ry
    limits (-180.0 0.0)
 end
  begin
     id 21 
     name lhand
     direction 1 -4.48951e-011 5.40064e-026   
     length 0.76799   
     axis -3.44607e-014 90 90   XYZ
    dof rx rz
    limits (-90.0 90.0)
           (-45.0 45.0)
  end
  begin
     id 22 
     name lfingers
     direction 1 -4.48971e-011 1.08013e-025   
     length 0.619174   
     axis -6.89214e-014 90 90   XYZ
    dof rx
    limits (0.0 90.0)
  end
  begin
     id 23
     name lthumb
     direction 0.707107 -6.34931e-011 0.707107   
     length 0.889013   
     axis -90 45 2.85299e-015   XYZ
    dof rx rz
    limits (-45.0 45.0)
           (-45.0 45.0)
  end
  begin
     id 24 
     name rclavicle
     direction -0.961409 0.252588 0.109054   
     length 4.04305  
     axis 0 0 0   XYZ 
    dof ry rz
    limits (-10.0 20.0)
           (-20.0 0.0)
  end
  begin
     id 25 
     name rhumerus
     direction -1 -4.4897e-011 1.33872e-017  
     length 4.70164   
     axis -180 30 90   XYZ
    dof rx ry rz
    limits (-90.0 60.0)
           (-90.0 90.0)
           (-90.0 90.0)
  end
  begin
     id 26 
     name rradius
     direction -1 -4.48954e-011 1.83844e-026   
     length 3.49911   
     axis -180 30 90   XYZ
    dof rx
    limits (-10.0 170.0)
  end
  begin
     id 27 
     name rwrist
     direction -1 -4.49008e-011 2.70032e-026   
     length 1.74955   
     axis -1.81515e-014 -90 -90   XYZ
    dof ry
    limits (-180.0 0.0)
  end
  begin
     id 28
     name rhand
     direction -1 -4.48916e-011 5.40064e-026   
     length 0.739335   
     axis -3.44607e-014 -90 -90   XYZ
    dof rx rz
    limits (-90.0 90.0)
           (-45.0 45.0)
  end
  begin
     id 29
     name rfingers
     direction -1 -4.48987e-011 1.08013e-025   
     length 0.596071   
     axis -6.89214e-014 -90 -90   XYZ
    dof rx
    limits (0.0 90.0)
  end
  begin
     id 30
     name rthumb
     direction -0.707107 -6.34935e-011 0.707107   
     length 0.855843   
     axis -90 -45 -2.85299e-015   XYZ
    dof rx rz
    limits (-45.0 45.0)
           (-45.0 45.0)
  end
:hierarchy
  begin
    root lhipjoint rhipjoint lowerback
    lhipjoint lfemur
    lfemur ltibia
    ltibia lfoot
    lfoot ltoes
    rhipjoint rfemur
    rfemur rtibia
    rtibia rfoot
    rfoot rtoes
    lowerback upperback
    upperback thorax
    thorax lowerneck lclavicle rclavicle
    lowerneck upperneck
    upperneck head
    lclavicle lhumerus
    lhumerus lradius
    lradius lwrist
    lwrist lhand lthumb
    lhand lfingers
    rclavicle rhumerus
    rhumerus rradius
    rradius rwrist
    rwrist rhand rthumb
    rhand rfingers
  end

#!OML:ASF I:\salsa\salsa 7_09\Patient 1\Session 1\dancermale.ASF
:FULLY-SPECIFIED
:DEGREES
524
root 6.77917 16.7793 -0.0343484 361.353 136.942 356.461
lowerback 0.135316 -1.02219 1.2036
upperback -0.966905 -1.35525 -0.81244
thorax -1.11345 -0.689488 -1.49093
lowerneck -6.05385 0.989633 3.01567
upperneck 27.6289 3.82735 -4.77883
head 9.86541 2.17942 -1.70429
rclavicle 3.50358e-015 -5.1684e-015
rhumerus -34.9284 -17.0622 -76.5779
rradius 96.5765
rwrist -26.5712
rhand -40.9848 5.23741
rfingers 7.12502
rthumb -13.917 -24.2769
lclavicle 3.50358e-015 -5.1684e-015
lhumerus -27.0072 -28.6835 107.019
lradius 77.7762
lwrist 23.4449
lhand -31.7542 37.4062
lfingers 7.12502
lthumb -5.01144 67.3269
rfemur -18.1279 11.2072 14.1742
rtibia 50.2649
rfoot -23.092 9.8712
rtoes -18.4196
lfemur -34.4405 0.175042 -27.8004
ltibia 32.1448
lfoot -0.84328 -9.85448
ltoes -0.884756
525
root 6.73144 16.8131 0.094076 362.398 139.599 357.124
lowerback 0.158082 -1.40241 1.99304
upperback -0.95063 -1.85668 -0.653297
thorax -1.14759 -0.94756 -1.76301
lowerneck -5.88731 1.20947 2.90095
upperneck 27.1104 4.14607 -4.88536
head 9.66149 2.30359 -1.68917
rclavicle 3.37934e-014 1.61016e-014
rhumerus -35.6818 -18.1384 -75.4256
rradius 97.6424
rwrist -27.4881
rhand -40.5061 5.03791
rfingers 7.12502
rthumb -13.4556 -24.5075
lclavicle 3.37934e-014 1.61016e-014
lhumerus -26.7528 -27.7254 107.183
lradius 79.1394
lwrist 28.9252
lhand -30.2567 36.9263
lfingers 7.12502
lthumb -3.56537 66.8762
rfemur -16.9892 7.74348 15.186
rtibia 47.4949
rfoot -23.9606 6.19555
rtoes -17.6166
lfemur -34.6687 -0.958858 -27.3669
ltibia 30.456
lfoot 1.08134 -11.3842
ltoes 2.31675
526
root 6.6763 16.8531 0.258726 363.765 141.288 357.88
lowerback 0.286883 -1.39779 2.61963
upperback -1.09622 -1.83742 -0.425369
thorax -1.38121 -0.946627 -1.87474
lowerneck -5.53872 1.40294 2.90902
upperneck 26.4169 4.39227 -5.00566
head 9.36157 2.40813 -1.71053
rclavicle -4.7522e-014 1.09332e-014
rhumerus -36.6626 -19.2092 -74.1841
rradius 98.7748
rwrist -27.6809
rhand -40.7013 4.41728
rfingers 7.12502
rthumb -13.6438 -25.1156
lclavicle -4.7522e-014 1.09332e-014
lhumerus -26.559 -26.8975 107.331
lradius 80.5335
lwrist 35.1008
lhand -29.1005 36.8546
lfingers 7.12502
lthumb -2.4488 66.8203
rfemur -16.8497 4.9583 16.4416
rtibia 45.2315
rfoot -24.8894 2.62443
rtoes -17.9976
lfemur -35.2395 -1.2787 -26.5166
ltibia 28.3836
lfoot 3.6262 -12.4831
ltoes 6.107
527
root 6.61491 16.9017 0.422053 364.903 143.057 358.507
lowerback 0.436557 -1.37762 3.21505
upperback -1.10951 -1.79581 -0.223957
thorax -1.4894 -0.932414 -1.99812
lowerneck -5.45553 1.61369 2.96687
upperneck 25.8494 4.62336 -5.02402
head 9.158 2.5131 -1.70501
rclavicle 5.41937e-014 1.80894e-014
rhumerus -37.5184 -20.1041 -72.9821
rradius 99.8664
rwrist -27.7238
rhand -41.1793 3.78742
rfingers 7.12502
rthumb -14.1044 -25.7139
lclavicle 5.41937e-014 1.80894e-014
lhumerus -26.3401 -26.1498 107.48
lradius 81.8641
lwrist 41.023
lhand -28.2787 36.7468
lfingers 7.12502
lthumb -1.65508 66.7201
rfemur -16.5024 2.17657 17.543
rtibia 42.5756
rfoot -25.4334 -0.382209
rtoes -18.5178
lfemur -35.4988 -1.72214 -25.7431
ltibia 25.8861
lfoot 6.34747 -13.298
ltoes 6.37484
528
root 6.55225 16.9574 0.587633 365.884 144.54 359
lowerback 0.563594 -1.26656 3.67996
upperback -1.00998 -1.63547 -0.0234342
thorax -1.45689 -0.8539 -2.05438
lowerneck -5.60864 1.85242 2.78324
upperneck 25.4066 4.85038 -4.7429
head 9.03191 2.61493 -1.55378
rclavicle -1.29459e-014 1.27222e-014
rhumerus -38.1034 -20.7756 -71.8391
rradius 100.78
rwrist -28.0282
rhand -41.3789 3.33655
rfingers 7.12502
rthumb -14.2968 -26.1513
lclavicle -1.29459e-014 1.27222e-014
lhumerus -26.196 -25.5209 107.677
lradius 83.213
lwrist 46.8457
lhand -28.9938 36.6158
lfingers 7.12502
lthumb -2.3457 66.5827
rfemur -15.9583 0.718299 18.2777
rtibia 39.3211
rfoot -25.3671 -0.775101
rtoes -11.0677
lfemur -35.5363 -1.78211 -25.0932
ltibia 23.1513
lfoot 7.49392 -13.4319
ltoes -6.81139
529
root 6.48926 17.0173 0.752942 366.95 145.718 359.521
lowerback 0.498041 -1.10072 4.0778
upperback -0.856395 -1.41068 0.21974
thorax -1.25211 -0.737105 -2.03564
lowerneck -5.59838 2.10372 2.70787
upperneck 24.7069 5.09007 -4.64107
head 8.79331 2.71362 -1.48623
rclavicle -2.78299e-015 9.93923e-015
rhumerus -38.3133 -21.2062 -70.8105
rradius 101.489
rwrist -28.7383
rhand -41.0781 2.72969
rfingers 7.12502
rthumb -14.0069 -26.7784
lclavicle -2.78299e-015 9.93923e-015
lhumerus -26.2046 -25.0418 107.92
lradius 84.6092
lwrist 52.5362
lhand -31.561 36.1075
lfingers 7.12502
lthumb -4.82483 66.0325
rfemur -15.5269 0.300422 19.033
rtibia 36.0355
rfoot -24.9809 -1.74482
rtoes -10.9339
lfemur -35.5605 -1.23141 -24.5099
ltibia 20.6305
lfoot 7.96979 -13.7794
ltoes -15.3138
530
root 6.42205 17.0789 0.915591 368.15 146.679 360.092
lowerback 0.273515 -0.983509 4.43402
upperback -0.738933 -1.2573 0.518102
thorax -0.996863 -0.652772 -1.93706
lowerneck -5.4245 2.42316 2.86811
upperneck 23.8634 5.46383 -4.88954
head 8.49863 2.86657 -1.5692
rclavicle -6.70898e-015 1.63003e-014
rhumerus -38.1462 -21.2301 -70.0775
rradius 102.006
rwrist -29.6302
rhand -40.3334 1.99133
rfingers 7.12502
rthumb -13.2891 -27.565
lclavicle -6.70898e-015 1.63003e-014
lhumerus -26.2088 -23.827 107.879
lradius 85.7869
lwrist 55.2954
lhand -29.4369 36.5812
lfingers 7.12502
lthumb -2.77365 66.5429
rfemur -15.6724 1.16071 19.9048
rtibia 33.4906
rfoot -24.3803 -3.18714
rtoes -11.7776
lfemur -35.768 -0.411894 -23.8673
ltibia 18.9315
lfoot 6.81646 -13.9057
ltoes -23.1034
531
root 6.34945 17.1242 1.06992 369.102 147.739 360.283
lowerback -0.0435197 -0.983554 4.55154
upperback -0.636157 -1.27231 0.697284
thorax -0.713063 -0.651316 -1.82579
lowerneck -5.26093 2.78646 3.04672
upperneck 23.1545 5.88614 -5.02619
head 8.25616 3.05752 -1.61323
rclavicle 4.84538e-014 -1.66979e-014
rhumerus -37.8485 -21.0428 -69.6831
rradius 102.386
rwrist -30.3365
rhand -39.4644 1.51064
rfingers 7.12502
rthumb -12.4515 -28.0985
lclavicle 4.84538e-014 -1.66979e-014
lhumerus -26.4533 -22.6834 107.818
lradius 86.9804
lwrist 57.9627
lhand -27.3582 37.1336
lfingers 7.12502
lthumb -0.766029 67.1119
rfemur -16.9225 1.22971 20.3456
rtibia 33.0315
rfoot -24.1901 -4.1207
rtoes -10.5479
lfemur -36.1493 0.0478499 -23.501
ltibia 18.31
lfoot 5.38094 -13.0663
ltoes -17.7306
532
root 6.28488 17.1715 1.21648 369.808 149.027 360.639
lowerback -0.199261 -1.0696 4.78875
upperback -0.438227 -1.39679 0.890933
thorax -0.431651 -0.703076 -1.76412
lowerneck -5.07795 3.10162 3.1768
upperneck 22.5121 6.21028 -4.96968
head 8.02399 3.21692 -1.59512
rclavicle -1.47101e-014 1.78906e-014
rhumerus -37.4744 -20.8443 -69.377
rradius 102.527
rwrist -31.0182
rhand -38.7844 1.56718
rfingers 7.12502
rthumb -11.7958 -28.0806
lclavicle -1.47101e-014 1.78906e-014
lhumerus -26.8926 -21.7295 107.665
lradius 88.143
lwrist 60.6038
lhand -25.5064 37.9062
lfingers 7.12502
lthumb 1.02244 67.8835
rfemur -17.7603 0.752155 20.9914
rtibia 32.6094
rfoot -23.7554 -4.85912
rtoes -8.90375
lfemur -36.6404 -0.456184 -22.6902
ltibia 20.3776
lfoot -0.0977189 -11.5496
ltoes -21.9694
533
root 6.22458 17.2234 1.35294 370.235 150.433 360.934
lowerback -0.24446 -1.20098 5.0191
upperback -0.184852 -1.57986 1.02253
thorax -0.160725 -0.783228 -1.76116
lowerneck -4.8554 3.30913 3.31836
upperneck 21.8635 6.36789 -4.84939
head 7.77521 3.30435 -1.57522
rclavicle 4.13472e-014 8.74653e-015
rhumerus -36.9904 -20.7492 -69.117
rradius 102.355
rwrist -31.6847
rhand -38.3022 1.7532
rfingers 7.12502
rthumb -11.3308 -27.9207
lclavicle 4.13472e-014 8.74653e-015
lhumerus -27.7469 -20.9223 107.334
lradius 89.5114
lwrist 63.7
lhand -23.7547 38.4165
lfingers 7.12502
lthumb 2.71424 68.379
rfemur -18.1821 -0.0627686 21.5384
rtibia 31.9584
rfoot -23.0861 -5.47668
rtoes -7.42807
lfemur -36.8039 -1.09377 -21.8985
ltibia 23.0041
lfoot -3.96044 -8.50066
ltoes -18.6726
534
root 6.16223 17.2769 1.48831 370.662 151.524 361.164
lowerback -0.262524 -1.24445 5.16291
upperback -0.0067581 -1.6429 1.10382
thorax 0.0264647 -0.806213 -1.76071
lowerneck -4.64088 3.44023 3.46158
upperneck 21.3087 6.42495 -4.68312
head 7.55485 3.3492 -1.54945
rclavicle -3.6477e-014 3.97569e-016
rhumerus -36.4738 -20.7027 -68.9217
rradius 101.918
rwrist -32.0031
rhand -37.84 1.6029
rfingers 7.12502
rthumb -10.8849 -28.095
lclavicle -3.6477e-014 3.97569e-016
lhumerus -28.9157 -20.3281 106.911
lradius 91.1904
lwrist 67.6385
lhand -22.8425 38.7545
lfingers 7.12502
lthumb 3.59521 68.704
rfemur -18.6042 -0.633286 21.937
rtibia 31.1385
rfoot -22.2769 -6.01383
rtoes -6.41619
lfemur -36.9355 -1.47434 -21.1435
ltibia 26.1194
lfoot -6.60633 -5.09052
ltoes -15.5604
535
root 6.10013 17.3258 1.62233 371.083 152.365 361.314
lowerback -0.254814 -1.24937 5.15139
upperback 0.0891727 -1.65057 1.17313
thorax 0.122559 -0.805315 -1.68437
lowerneck -4.49257 3.52313 3.50408
upperneck 20.8885 6.43781 -4.4772
head 7.3856 3.3691 -1.49574
rclavicle -5.15846e-014 5.56597e-015
rhumerus -36.0444 -20.4498 -68.7286
rradius 101.305
rwrist -32.301
rhand -37.2497 1.34096
rfingers 7.12502
rthumb -10.3155 -28.3861
lclavicle -5.15846e-014 5.56597e-015
lhumerus -30.3005 -20.1603 106.634
lradius 92.4233
lwrist 70.9832
lhand -22.6411 38.0933
lfingers 7.12502
lthumb 3.78972 68.0394
rfemur -18.9806 -0.937503 22.2067
rtibia 30.1497
rfoot -21.4627 -6.44658
rtoes -5.72641
lfemur -37.0287 -1.54461 -20.4947
ltibia 29.4986
lfoot -8.5616 -1.95045
ltoes -12.2675
536
root 6.04331 17.3693 1.75265 371.471 153.138 361.512
lowerback -0.27301 -1.25726 5.05249
upperback 0.210734 -1.66361 1.29283
thorax 0.263125 -0.805465 -1.50864
lowerneck -4.46433 3.55472 3.42328
upperneck 20.4825 6.38811 -4.27524
head 7.23676 3.34509 -1.42576
rclavicle -1.87852e-014 -3.57812e-015
rhumerus -35.6977 -19.9857 -68.5687
rradius 100.768
rwrist -33.1387
rhand -36.4478 1.29933
rfingers 7.12502
rthumb -9.54191 -28.4646
lclavicle -1.87852e-014 -3.57812e-015
lhumerus -31.5184 -19.9343 106.117
lradius 93.7269
lwrist 73.8791
lhand -21.7502 38.8618
lfingers 7.12502
lthumb 4.64999 68.7908
rfemur -19.1206 -1.06395 22.5279
rtibia 28.8837
rfoot -20.5388 -6.91587
rtoes -4.63729
lfemur -37.0854 -1.31804 -19.8385
ltibia 33.2299
lfoot -10.1431 0.820924
ltoes -9.98509
537
root 5.98709 17.4124 1.87547 371.897 153.85 361.903
lowerback -0.313952 -1.20134 5.08528
upperback 0.340436 -1.59081 1.47417
thorax 0.428091 -0.760505 -1.34355
lowerneck -4.49856 3.52458 3.3215
upperneck 20.0988 6.26294 -4.10656
head 7.10424 3.27968 -1.36782
rclavicle -1.56046e-014 -9.14409e-015
rhumerus -35.4993 -19.6712 -68.3741
rradius 100.386
rwrist -34.3352
rhand -35.3312 1.63395
rfingers 7.12502
rthumb -8.46443 -28.1764
lclavicle -1.56046e-014 -9.14409e-015
lhumerus -32.6307 -19.8377 105.545
lradius 94.8959
lwrist 76.9417
lhand -21.1014 39.6873
lfingers 7.12502
lthumb 5.27642 69.6016
rfemur -19.0743 -0.946678 23.0476
rtibia 27.4182
rfoot -19.6148 -7.58717
rtoes -3.95366
lfemur -37.1252 -0.835846 -19.0128
ltibia 37.2587
lfoot -11.4304 3.28402
ltoes -7.36839
